<svg width="32" height="41" viewBox="0 0 32 41" fill="none" xmlns="http://www.w3.org/2000/svg">
<path d="M0.5 24.5665C0.5 22.7163 1.01171 20.5938 2.03513 18.199C3.05854 15.8042 4.37437 13.4849 5.98259 11.241C9.30538 6.91065 12.1829 3.64323 14.6152 1.43871C15.498 0.599824 16.8845 0.647026 17.8664 1.36737C17.899 1.39127 17.9317 1.41505 17.9646 1.43871C18.8418 2.31789 20.1775 3.77773 21.9718 5.81823C23.7661 7.85873 25.3013 9.71224 26.5772 11.3788C28.0924 13.5045 29.375 15.778 30.425 18.199C31.475 20.62 32 22.7426 32 24.5665C32 26.6661 31.588 28.6705 30.7639 30.5798C29.9399 32.489 28.8267 34.1392 27.4245 35.5301C26.0223 36.9211 24.3443 38.0266 22.3905 38.8467C20.4367 39.6669 18.3766 40.0769 16.2101 40.0769C14.0835 40.0769 12.0533 39.68 10.1195 38.8861C8.1856 38.0922 6.51424 37.0096 5.10538 35.6384C3.69652 34.2671 2.57674 32.6203 1.74604 30.6979C0.915348 28.7755 0.5 26.7317 0.5 24.5665ZM5.30475 18.4057C5.30475 20.1509 5.6769 21.5419 6.4212 22.5785C7.16551 23.6152 8.29525 24.1335 9.81044 24.1335C11.3389 24.1335 12.4786 23.6185 13.2296 22.5884C13.9805 21.5583 14.3627 20.164 14.3759 18.4057C14.3627 16.6473 13.9805 15.2498 13.2296 14.2131C12.4786 13.1765 11.3389 12.6582 9.81044 12.6582C8.29525 12.6582 7.16551 13.1765 6.4212 14.2131C5.6769 15.2498 5.30475 16.6473 5.30475 18.4057ZM8.65411 18.4057C8.65411 18.0907 8.65744 17.848 8.66408 17.6774C8.67073 17.5068 8.68402 17.2772 8.70396 16.9885C8.72389 16.6998 8.75712 16.4734 8.80364 16.3094C8.85016 16.1454 8.91329 15.9748 8.99304 15.7976C9.07279 15.6205 9.18244 15.4926 9.32199 15.4138C9.46155 15.3351 9.62437 15.2957 9.81044 15.2957C10.1028 15.2957 10.3354 15.381 10.5082 15.5516C10.681 15.7222 10.804 15.9912 10.8771 16.3586C10.9502 16.726 10.9934 17.041 11.0066 17.3034C11.0199 17.5659 11.0266 17.9333 11.0266 18.4057C11.0266 18.8781 11.0199 19.2422 11.0066 19.4981C10.9934 19.754 10.9502 20.0656 10.8771 20.4331C10.804 20.8005 10.681 21.0695 10.5082 21.2401C10.3354 21.4107 10.1028 21.4959 9.81044 21.4959C9.62437 21.4959 9.46155 21.4566 9.32199 21.3778C9.18244 21.2991 9.07279 21.1712 8.99304 20.994C8.91329 20.8169 8.85016 20.6463 8.80364 20.4823C8.75712 20.3182 8.72389 20.0919 8.70396 19.8032C8.68402 19.5145 8.67073 19.2881 8.66408 19.1241C8.65744 18.9601 8.65411 18.7206 8.65411 18.4057ZM9.89019 34.6837H12.7013L23.3076 12.1267H20.4367L9.89019 34.6837ZM19.0411 28.4048C19.0677 30.1631 19.4565 31.5607 20.2074 32.5973C20.9584 33.634 22.0915 34.1523 23.6066 34.1523C25.1351 34.1523 26.2682 33.6372 27.0059 32.6071C27.7435 31.5771 28.119 30.1763 28.1323 28.4048C28.119 26.6464 27.7435 25.2522 27.0059 24.2221C26.2682 23.192 25.1351 22.6769 23.6066 22.6769C22.0915 22.6769 20.9584 23.192 20.2074 24.2221C19.4565 25.2522 19.0677 26.6464 19.0411 28.4048ZM22.3905 28.4048C22.3905 27.9324 22.3972 27.5682 22.4104 27.3124C22.4237 27.0565 22.4669 26.7448 22.54 26.3774C22.6131 26.01 22.7361 25.741 22.9089 25.5704C23.0816 25.3998 23.3142 25.3145 23.6066 25.3145C23.806 25.3145 23.9755 25.3539 24.115 25.4326C24.2546 25.5113 24.3676 25.6426 24.454 25.8263C24.5403 26.01 24.6101 26.1773 24.6633 26.3282C24.7165 26.4791 24.7497 26.7055 24.763 27.0073L24.7929 27.6863L24.8028 28.4048C24.8028 28.7459 24.7995 28.992 24.7929 29.1429L24.763 29.822L24.6633 30.501L24.454 31.003L24.115 31.3966L23.6066 31.5147C23.3142 31.5147 23.0816 31.4294 22.9089 31.2588C22.7361 31.0883 22.6131 30.8193 22.54 30.4518C22.4669 30.0844 22.4237 29.7695 22.4104 29.507C22.3972 29.2446 22.3905 28.8772 22.3905 28.4048Z" fill="white"/>
</svg>
